<svg xmlns="http://www.w3.org/2000/svg" xmlns:xlink="http://www.w3.org/1999/xlink" version="1.1" x="0px" y="0px" viewBox="0 0 2000 2500" style="enable-background:new 0 0 2000 2000;" xml:space="preserve"><g><path d="M920.1,464.44c1.97,8.28,7.18,13.94,12.76,13.94h134.28c5.58,0,10.79-5.66,12.76-13.94l46.36-149.1   c3.78-15.9-1.96-32.01-11.6-32.01H885.33c-9.64,0-15.38,16.11-11.6,32.01L920.1,464.44z"/><path d="M1069.93,519.97c-0.93,0.06-1.85,0.08-2.79,0.08H932.86c-0.94,0-1.87-0.02-2.79-0.08l-146.14,888.05L1000,1716.67   l216.07-308.65L1069.93,519.97z"/></g><text x="0" y="2015" fill="#000000" font-size="5px" font-weight="bold" font-family="'Helvetica Neue', Helvetica, Arial-Unicode, Arial, Sans-serif">Created by fendy hermawan</text><text x="0" y="2020" fill="#000000" font-size="5px" font-weight="bold" font-family="'Helvetica Neue', Helvetica, Arial-Unicode, Arial, Sans-serif">from the Noun Project</text></svg>